<?xml version="1.0" encoding="UTF-8"?>
<svg xmlns="http://www.w3.org/2000/svg" viewBox="0 0 799.82 185.1" width="800" height="185"><path d="M0 2.47h74.54v180.16H0zM162.64 92.55l21.69-32.41c5.46-8.16 8.17-15.41 8.17-24.6C192.5 16.62 177.35 0 155.73 0c-14.94 0-25.71 7.09-35.04 21.47L74.54 92.55l46.15 71.08c9.33 14.37 20.1 21.47 35.04 21.47 21.62 0 36.77-16.62 36.77-35.54 0-9.19-2.7-16.44-8.17-24.6l-21.69-32.41zM384.56 64.31c13.99 0 22.34 7.69 24.62 19.24h-49.51c2.75-11.8 11.92-19.24 24.89-19.24zm.12-17.2c-25.99 0-44.76 20.93-44.76 44.51s17.81 44.27 44.63 44.27c20.22 0 35.37-11.43 42.23-26.95h-21.54c-3.96 5.9-10.47 9.51-20.33 9.51-13.91 0-22.82-7.59-25.36-19.61h68.67c.36-2.28.6-4.57.6-7.58 0-22.37-16.36-44.15-44.15-44.15h.01z"/><path d="M340.76 49.28V48.2h-23.93l-39.1 42.23 39.46 44.38h25.5v-1.07l-39.76-43.91 37.83-40.54v-.01z"/><path d="M258 48.2h19.73v86.61H258zM755.55 64.31c13.99 0 22.34 7.69 24.62 19.24h-49.51c2.75-11.8 11.92-19.24 24.88-19.24h.01zm44.27 26.95c0-22.37-16.36-44.15-44.15-44.15-25.99 0-44.76 20.93-44.76 44.51s17.81 44.27 44.63 44.27c20.22 0 35.37-11.43 42.23-26.95h-21.54c-3.96 5.9-10.47 9.51-20.33 9.51-13.91 0-22.82-7.59-25.36-19.61h68.67c.36-2.28.6-4.57.6-7.58h.01zM678.81 97.39c0 11.79-7.45 20.09-19.97 20.09s-19.73-8.3-19.73-20.09v-49.2h-19.73v50.4c0 21.05 15.03 37.29 38.97 37.29s40.18-17.2 40.18-37.29v-50.4H678.8V97.4h.01zM481.15 47.11c-23.82 0-40.42 17.56-40.42 37.65v50.04h19.73V85.96c0-12.15 7.45-20.45 20.2-20.45s20.09 8.3 20.09 20.45v48.84h19.73V84.76c0-20.93-14.32-37.65-39.34-37.65h.01zM567.15 98.18l-24.4-49.98H521.7l44.63 88.65h.96L611.8 48.2h-20.33l-24.32 49.98z"/></svg>
